<svg width="364" height="451" viewBox="0 0 364 451" fill="none" xmlns="http://www.w3.org/2000/svg">
<path d="M105.251 434.644C105.83 448.439 62.7177 444.437 48.5756 445.031C34.4334 445.625 72.9154 422.798 72.3362 409.003C71.757 395.208 62.8829 336.836 77.0251 336.242C236.565 357.568 104.672 420.849 105.251 434.644Z" fill="white"/>
<path d="M202.546 438.644C201.967 452.439 245.079 448.437 259.221 449.031C273.363 449.625 234.881 426.798 235.461 413.003C236.04 399.208 244.914 340.836 230.772 340.242C71.2315 361.568 203.125 424.849 202.546 438.644Z" fill="white"/>
<path d="M253.754 356.197C262.051 366.164 278.974 352.139 289.429 343.436C299.883 334.734 269.364 322.544 261.067 312.576C252.77 302.609 223.743 267.96 213.289 276.662C113.043 394.325 245.458 346.23 253.754 356.197Z" fill="white"/>
<path d="M53.9439 356.197C45.6472 366.164 28.7241 352.139 18.2696 343.436C7.81501 334.734 38.3346 322.544 46.6313 312.576C54.9281 302.609 83.9549 267.96 94.4095 276.662C194.656 394.325 62.2407 346.23 53.9439 356.197Z" fill="white"/>
<path d="M238.5 356.5C238.5 382.181 238.5 388 168 404.5C49.5 404.5 70.5 357.908 70.5 332.227C70.5 306.546 75 198.727 168 288.727C240 209.727 238.5 330.819 238.5 356.5Z" fill="white"/>
<path d="M352.4 171.478C329.305 207.698 287.685 169.101 264.317 163.447C240.948 157.793 229.317 160.01 235.526 134.348C241.735 108.686 205.389 95.578 228.758 101.232C259.75 132.339 306.014 179.93 352.4 171.478Z" fill="#514581"/>
<path d="M141.808 247.142C138.471 291.822 123.846 268.831 103.286 278.653C76.6932 278.653 65.6932 297.5 35.1932 287C21.8639 259.1 -13.5994 265.942 6.96051 256.119C58.5257 231.484 114.607 284.956 141.808 247.142Z" fill="#514581"/>
<path d="M363.693 97.5C348.193 133.624 305.193 119 271.709 164.009C254.036 164.009 255.209 142.461 255.209 133.624C255.209 124.788 292.693 121.5 306.193 105.5C324.693 90 346.193 105.5 363.693 97.5Z" fill="#514581"/>
<path d="M273.545 176.389C273.545 252.052 242.545 287.889 152.045 287.889C68.448 287.889 28.0452 252.052 28.0452 176.389C28.0452 100.726 60.9934 40.8888 146.045 40.8888C231.097 40.8888 273.545 100.726 273.545 176.389Z" fill="white"/>
<path d="M128.045 75.7946C128.045 116.94 85.4864 199.795 75.5452 199.795C27.0452 281.795 22.5452 156.94 22.5452 115.795C22.5452 74.6494 41.6041 1.79458 51.5452 1.79458C65.0452 -5.70542 128.045 34.6493 128.045 75.7946Z" fill="white"/>
<path d="M159.545 75.7947C159.545 116.94 209.604 223.389 219.545 223.389C268.045 305.389 274.545 188.534 274.545 147.389C274.545 106.244 243.986 0.888823 234.045 0.888823C220.545 -6.61118 159.545 34.6495 159.545 75.7947Z" fill="white"/>
<path d="M127.127 186.146C118.241 191.202 104.809 203 92.1069 203C79.4053 203 71.1995 191.564 71.1995 178.843C71.1995 166.122 70.5195 153 83.2212 153C95.9229 153 117.718 175.472 127.127 186.146Z" fill="#514581"/>
<path d="M176.259 186.146C185.145 191.202 198.578 203 211.279 203C223.981 203 232.187 191.564 232.187 178.843C232.187 166.122 232.867 153 220.165 153C207.463 153 185.668 175.472 176.259 186.146Z" fill="#514581"/>
<path d="M278.169 145.624C278.169 149.036 219.549 128.103 148.607 128.103C83.9593 128.103 21.5468 149.036 21.5468 145.624C12.0423 128.103 14.0433 84 148.607 84C283.172 84 278.169 119.041 278.169 145.624Z" fill="#514581"/>
<path d="M234.789 272.976C234.785 271.325 198.511 281.546 154.582 281.659C114.55 281.761 75.8768 271.732 75.8811 273.383C70.0173 281.875 71.311 303.213 154.637 302.999C237.963 302.786 234.822 285.839 234.789 272.976Z" fill="#514581"/>
</svg>
